<svg width="24" height="24" viewBox="0 0 24 24" fill="none" xmlns="http://www.w3.org/2000/svg">
<g clip-path="url(#clip0_1_244)">
<path fill-rule="evenodd" clip-rule="evenodd" d="M3.72857 21.1817C7.536 24.3823 14.0966 23.3589 18.7286 18.7286C22.92 14.5372 24.1543 8.76689 21.9806 4.88575C21.8917 5.20423 21.7945 5.52034 21.6891 5.83375C21.1269 7.52403 20.1566 9.69432 18.54 11.3126C17.6143 12.2383 16.4829 12.6669 15.3531 12.8726C14.2646 13.0715 13.0989 13.0715 12.048 13.0715H12C10.8943 13.0715 9.91028 13.0749 9.02914 13.2343C8.17028 13.3903 7.49485 13.6835 6.97542 14.2029C5.70171 15.4766 4.86343 17.2817 4.34228 18.8435C4.0882 19.609 3.88321 20.3901 3.72857 21.1817ZM2.01942 19.1143C-0.15429 15.2332 1.08 9.46289 5.27143 5.27146C9.90343 0.639461 16.464 -0.380539 20.2714 2.81832C20.1163 3.61005 19.9107 4.39107 19.656 5.1566C19.1366 6.7166 18.2983 8.52346 17.0246 9.79718C16.5051 10.3166 15.8297 10.6097 14.9709 10.7657C14.0897 10.9252 13.1057 10.9286 12 10.9286H11.952C10.9011 10.9286 9.73543 10.9286 8.64685 11.1257C7.51714 11.3315 6.38571 11.7617 5.46 12.6875C3.84342 14.3057 2.87314 16.476 2.31085 18.1663C2.19942 18.4989 2.10342 18.8177 2.01942 19.1143Z" fill="#B88C66"/>
</g>
<defs>
<clipPath id="clip0_1_244">
<rect width="24" height="24" fill="white"/>
</clipPath>
</defs>
</svg>
